<svg width="31" height="31" viewBox="0 0 31 31" fill="none" xmlns="http://www.w3.org/2000/svg">
<path d="M30.6151 5.56636C30.6151 7.66211 27.43 9.48738 22.724 10.437C27.43 11.3865 30.6151 13.2118 30.6151 15.3075C30.6151 17.4033 27.43 19.2286 22.724 20.1781C27.43 21.1277 30.6151 22.953 30.6151 25.0487C30.6151 28.1229 23.7617 30.6151 15.3075 30.6151C6.85341 30.6151 0 28.1229 0 25.0487C0 22.953 3.18507 21.1277 7.89104 20.1781C3.18507 19.2286 0 17.4033 0 15.3075C0 13.2118 3.18507 11.3865 7.89104 10.437C3.18507 9.48738 0 7.66211 0 5.56636C0 2.49215 6.85341 0 15.3075 0C23.7617 0 30.6151 2.49215 30.6151 5.56636Z" fill="#13EC80"/>
</svg>
